# xmcd
#
# Track frame offsets: 
#        150
#        15987
#        31667
#        50909
#        63391
#        79100
#        93032
#        110587
#        122254
#        146340
#        168313
#        184823
#        198285
#        214602
#        234749
#        251754
#
# Disc length: 3582 seconds
#
# Revision: 0
# Processed by: cddbd v1.5.2PL0 Copyright (c) Steve Scherf et al.
# Submitted via: ExactAudioCopyFreeDBPlugin 1.0
#
DISCID=cd0dfc10
DTITLE=Dan Penn - I Need a Holiday (Demo Series 3)
DYEAR=2013
DGENRE=Soul
TTITLE0=I Need a Holiday
TTITLE1=To Make a Love Story Short
TTITLE2=Blue in the Heart
TTITLE3=After Ours
TTITLE4=Battlin' the Blues
TTITLE5=Overtaken by Love
TTITLE6=Building Fires (recorded in 1973)
TTITLE7=Building Fires (R&B Version) (recorded in 1973)
TTITLE8=Dream on It Awhile
TTITLE9=Peace in Poretta (recorded live)
TTITLE10=Make Somebody Happy This Christmas (recorded in 1979)
TTITLE11=Don't Give Up on Me
TTITLE12=Till The Last Star Falls
TTITLE13=Set the Table
TTITLE14=After the Rain
TTITLE15=You Can't Take God Out of Me
EXTD=
EXTT0=
EXTT1=
EXTT2=
EXTT3=
EXTT4=
EXTT5=
EXTT6=
EXTT7=
EXTT8=
EXTT9=
EXTT10=
EXTT11=
EXTT12=
EXTT13=
EXTT14=
EXTT15=
PLAYORDER=
